<svg width="65" height="65" viewBox="0 0 65 65" fill="none" xmlns="http://www.w3.org/2000/svg">
<g clip-path="url(#clip0)">
<path d="M31.2356 35.3892C31.2749 35.1573 31.3141 35.0358 31.3141 34.9137C31.317 30.4055 31.3192 25.8973 31.3207 21.3891C31.3207 21.115 31.2058 20.9805 30.9687 20.8685C28.7242 19.8083 26.4826 18.7419 24.244 17.6691C23.8534 17.4837 23.4985 17.2729 23.3712 16.8104C23.249 16.3741 23.3385 15.9866 23.6418 15.6666C23.956 15.3351 24.3691 15.1715 24.7989 15.3489C25.615 15.6841 26.4114 16.0687 27.2099 16.4454C28.4151 17.0133 29.6144 17.5921 30.8174 18.1643C31.2538 18.373 31.3163 18.3374 31.317 17.8553C31.317 16.1705 31.317 14.4858 31.317 12.801C31.317 12.1379 31.5971 11.7285 32.1542 11.5395C32.8706 11.2959 33.6146 11.7954 33.6939 12.5778C33.7041 12.723 33.707 12.8686 33.7026 13.0141C33.7026 15.8862 33.7026 18.7586 33.7026 21.6313C33.7026 22.1715 33.7455 22.1984 34.2241 21.9701C36.0714 21.0888 37.9188 20.208 39.7661 19.3277C40.1298 19.1561 40.4869 19.0041 40.9131 19.1743C41.3669 19.3561 41.6302 19.6709 41.6877 20.1392C41.7466 20.6235 41.5764 21.0459 41.1408 21.2808C40.4913 21.6305 39.8192 21.9352 39.1523 22.2573C37.4795 23.0571 35.8067 23.857 34.1303 24.6386C33.8095 24.7877 33.6939 24.9804 33.6939 25.3338C33.7062 28.4975 33.7004 31.6598 33.7026 34.8242C33.7026 34.9733 33.7317 35.1224 33.7586 35.3718C33.9244 35.2263 34.0255 35.1493 34.1077 35.0576C35.4125 33.5932 37.0828 32.5015 38.9479 31.8939C39.2759 31.7848 39.3916 31.5951 39.4323 31.2657C39.8549 27.8584 42.4448 24.912 45.7708 24.006C47.0695 23.6392 48.4357 23.5792 49.7615 23.8308C50.0408 23.8853 50.1557 23.8025 50.2408 23.548C50.835 21.7709 50.9092 19.9683 50.5404 18.1389C50.4925 17.9261 50.4635 17.7096 50.4539 17.4917C50.4401 16.8984 50.8052 16.4701 51.4081 16.3436C51.9303 16.2331 52.5034 16.4985 52.6773 17.0155C52.8437 17.5205 52.9613 18.0404 53.0286 18.5679C53.3054 20.5427 53.1036 22.5552 52.4402 24.4358C52.3391 24.7208 52.5085 24.8277 52.7056 24.9448C54.2533 25.8828 55.4308 27.169 56.1407 28.8283C56.4745 29.6093 56.6607 30.4593 56.8535 31.2919C56.9262 31.622 57.0571 31.787 57.3677 31.8983C60.9642 33.1882 63.4137 35.6175 64.568 39.2786C65.0422 40.7874 65.1447 42.3325 64.7862 43.9009C63.7469 48.3888 60.9315 51.154 56.5531 52.3974C55.1716 52.7861 53.721 52.8626 52.3063 52.6214C51.4554 52.481 50.6335 52.1706 49.8015 51.9081C49.4015 51.7808 49.3477 51.7852 49.3477 52.1989C49.3477 55.5197 49.3477 58.8405 49.3404 62.1605C49.3404 62.5241 49.5208 62.5714 49.8175 62.5706C52.9813 62.5658 56.1453 62.5658 59.3096 62.5706C59.5388 62.5678 59.7672 62.5974 59.9881 62.6586C60.2151 62.7313 60.4132 62.8738 60.5544 63.0658C60.6956 63.2577 60.7726 63.4893 60.7744 63.7275C60.7889 64.198 60.5176 64.6662 60.0871 64.8298C59.8412 64.9291 59.5797 64.984 59.3147 64.992C41.4462 64.9992 23.5788 65.0012 5.71226 64.9978C4.65112 64.9978 4.02201 64.2336 4.33402 63.3363C4.49839 62.8644 4.94132 62.5721 5.53625 62.5699C6.8694 62.5634 8.20256 62.5699 9.53643 62.5699C11.4153 62.5699 13.2942 62.5699 15.173 62.5699C15.6654 62.5699 15.6822 62.5525 15.6822 62.0551C15.6822 58.8073 15.6822 55.5594 15.6822 52.3116C15.6822 51.7583 15.6611 51.7517 15.1301 51.9633C13.517 52.6054 11.8507 52.8875 10.1161 52.6803C5.77263 52.1567 2.63358 49.9346 0.863319 45.9427C-0.508379 42.8401 -0.202184 39.7672 1.50626 36.8587C2.92959 34.4338 5.01914 32.7934 7.6818 31.8859C7.924 31.803 8.09855 31.699 8.13928 31.3995C8.51311 28.6582 9.86299 26.5338 12.1889 25.0262C12.6115 24.7528 12.698 24.8146 12.4937 24.1973C11.8781 22.3634 11.7059 20.4098 11.9911 18.4966C12.3598 16.0302 13.3555 13.843 15.0225 11.9677C16.5127 10.2769 18.4316 9.01938 20.5769 8.32775C20.8875 8.22595 21.2148 8.16923 21.5137 8.04344C21.6717 7.97309 21.7972 7.84553 21.865 7.68642C23.129 3.99189 25.6746 1.64691 29.3722 0.502414C30.5243 0.145395 31.7112 -0.0625629 32.9142 0.0166938C35.0918 0.162119 37.1202 0.780176 38.9297 2.04174C40.948 3.44582 42.3714 5.28981 43.1256 7.6348C43.2078 7.88929 43.3358 8.02672 43.5823 8.08489C43.8172 8.1416 44.0536 8.19905 44.2842 8.27249C44.8056 8.439 45.1511 8.85419 45.1693 9.3559C45.1875 9.85762 44.9766 10.2939 44.5038 10.4597C44.1838 10.5724 43.7925 10.544 43.4434 10.4975C42.9903 10.4379 42.5495 10.2859 42.0993 10.1965C41.5626 10.0896 41.2026 9.76019 41.0811 9.24029C40.2811 5.8228 38.0868 3.70541 34.8016 2.73396C30.7657 1.5393 26.4979 3.64287 24.6702 7.15707C24.34 7.79258 24.1545 8.50953 23.9523 9.20321C23.7902 9.75801 23.4549 10.0874 22.8854 10.1972C18.9238 10.9614 16.1651 13.1857 14.7948 17.006C14.0225 19.1597 14.0675 21.3513 14.7716 23.5298C14.8603 23.8039 14.9796 23.8795 15.2734 23.8272C19.6947 23.0375 23.9065 25.5759 25.2884 29.866C25.4312 30.3409 25.5318 30.8275 25.5888 31.3202C25.631 31.63 25.7633 31.7921 26.0535 31.8859C27.794 32.4465 29.2886 33.4085 30.5803 34.6941C30.7803 34.8933 30.9679 35.1049 31.2356 35.3892ZM18.1063 44.6499L18.2255 44.6819C18.3114 44.6034 18.3994 44.5277 18.4823 44.4456C18.947 43.986 19.3987 43.5105 19.8787 43.064C20.0778 42.873 20.3379 42.7581 20.6132 42.7395C20.8886 42.721 21.1617 42.8 21.3846 42.9626C21.6075 43.1253 21.766 43.3613 21.8323 43.6291C21.8986 43.8969 21.8685 44.1796 21.7472 44.4274C21.6228 44.6804 21.4082 44.8964 21.206 45.1014C20.2351 46.0845 19.2518 47.0552 18.2794 48.0361C17.9034 48.4157 17.9739 48.9479 18.4306 49.2148C20.2998 50.3055 22.3028 50.6283 24.4149 50.1819C26.2977 49.7993 27.9982 48.7974 29.2449 47.3359C31.1236 45.1618 31.8632 42.6474 30.9803 39.8698C29.9926 36.7489 27.8027 34.7886 24.6317 33.9575C23.5611 33.6768 23.332 33.4107 23.2985 32.3091C23.2968 31.861 23.2398 31.4148 23.129 30.9806C22.3792 28.363 20.6947 26.6797 17.9979 26.1758C15.4414 25.6981 13.3431 26.6121 11.7431 28.6248C10.8347 29.7671 10.4143 31.1086 10.4339 32.5803C10.4427 33.2973 10.143 33.6608 9.43679 33.847C9.2266 33.9022 9.0135 33.948 8.80622 34.0113C6.6534 34.673 4.91732 35.9055 3.7049 37.8142C2.38339 39.8945 2.04083 42.1239 2.83213 44.4834C3.42707 46.2532 4.53257 47.642 6.04537 48.7262C8.75167 50.6661 12.4457 50.9672 15.3585 49.1908C15.5818 49.0555 15.6829 48.8999 15.6807 48.6382C15.672 47.4389 15.672 46.2394 15.6807 45.0396C15.6807 44.7771 15.5963 44.6201 15.352 44.5008C14.005 43.8384 12.6653 43.16 11.3227 42.4881C10.4674 42.0599 9.60698 41.6418 8.75894 41.2004C8.09637 40.8557 7.88036 40.2042 8.18801 39.5753C8.47166 38.9936 9.16114 38.7834 9.81208 39.0743C9.91172 39.1186 10.0085 39.1688 10.103 39.2197L15.2669 41.8039C15.5992 41.9697 15.6698 41.9312 15.6727 41.5552C15.6778 40.6703 15.6727 39.7861 15.6727 38.9012C15.6727 38.041 15.6589 37.1801 15.68 36.3199C15.7025 35.4176 16.5571 34.878 17.3702 35.2452C17.8859 35.4779 18.0612 35.9236 18.0604 36.4624C18.0604 39.0316 18.0604 41.6008 18.0604 44.17C18.067 44.3285 18.0925 44.4892 18.1063 44.6499ZM46.7708 37.0616L46.8996 37.026C46.9264 36.8818 46.9441 36.7361 46.9527 36.5897C46.957 35.2685 46.9527 33.9473 46.957 32.6269C46.957 31.8423 47.4581 31.302 48.1542 31.3049C48.8502 31.3078 49.3309 31.8496 49.3418 32.6378C49.3418 32.7716 49.3418 32.9046 49.3418 33.0384V41.4004C49.3418 41.9755 49.368 41.9901 49.8691 41.7392C51.0823 41.1328 52.294 40.5234 53.5093 39.9214C54.1493 39.6051 54.7857 39.2793 55.4432 39.003C55.8876 38.8162 56.3109 38.9645 56.6338 39.3091C56.9567 39.6538 57.0542 40.0603 56.8884 40.5198C56.7429 40.9175 56.4294 41.1284 56.0752 41.3051C53.9418 42.3716 51.8084 43.438 49.675 44.5045C49.4728 44.6048 49.3411 44.7175 49.3426 44.9655C49.3491 46.2139 49.3426 47.4624 49.3557 48.7109C49.3609 48.7913 49.383 48.8697 49.4206 48.941C49.4582 49.0123 49.5104 49.0749 49.5739 49.1246C50.6459 49.8198 51.8736 50.2385 53.1471 50.3433C55.4534 50.5207 57.5626 49.9216 59.3481 48.4448C61.9788 46.2685 63.2334 43.5098 62.3053 40.1032C61.4151 36.8347 59.1648 34.8475 55.9305 33.9568C55.0672 33.719 54.5835 33.5438 54.5654 32.3222C54.5516 31.6338 54.4202 30.9529 54.177 30.3088C53.2409 27.8315 51.4132 26.3707 48.7898 26.098C46.1875 25.8275 44.1416 26.9211 42.7015 29.0937C42.0026 30.1474 41.6921 31.3333 41.7131 32.6058C41.7241 33.2813 41.4026 33.6732 40.7611 33.8361C40.5429 33.8928 40.3138 33.9408 40.0949 34.0077C37.9668 34.6577 36.2307 35.8633 35.0299 37.7466C33.3229 40.4224 33.2 43.2 34.7928 45.9573C36.166 48.3299 38.2621 49.7478 40.9786 50.2328C42.999 50.5963 44.8733 50.2139 46.637 49.1952C46.8603 49.0665 46.9643 48.913 46.9628 48.6462C46.9556 46.0765 46.9628 43.5068 46.9476 40.9386C46.934 40.7274 46.8473 40.5274 46.7025 40.3729C46.0159 39.6545 45.3031 38.9616 44.602 38.2563C44.2093 37.8607 43.802 37.4753 43.4383 37.0565C43.2608 36.8615 43.1575 36.6104 43.1463 36.347C43.1351 36.0836 43.2169 35.8246 43.3772 35.6153C43.5299 35.3948 43.7554 35.2352 44.0141 35.1644C44.2728 35.0937 44.5482 35.1164 44.7918 35.2285C45.0085 35.3356 45.2053 35.479 45.3737 35.6524C45.8442 36.1127 46.3039 36.5904 46.7708 37.0616ZM33.7841 48.7683C33.7499 48.9421 33.7062 49.0592 33.7062 49.1828C33.7033 53.5097 33.7014 57.8366 33.7004 62.1635C33.7004 62.4543 33.803 62.5743 34.1033 62.5736C38.249 62.5687 42.3946 62.5687 46.5403 62.5736C46.8603 62.5736 46.9592 62.4499 46.9585 62.1416C46.9517 58.8332 46.95 55.5245 46.9534 52.2156C46.9534 51.7924 46.8908 51.7532 46.517 51.9102C44.5293 52.7428 42.4826 52.9428 40.364 52.5392C38.5331 52.2024 36.8177 51.4065 35.3783 50.2262C34.8452 49.7899 34.3608 49.2991 33.7841 48.7661V48.7683ZM31.2538 48.8112C31.2042 48.8173 31.1554 48.8287 31.1083 48.8454C31.0628 48.8852 31.0196 48.9274 30.9788 48.9719C28.986 51.1373 26.5423 52.3989 23.5989 52.6868C21.8675 52.8567 20.1211 52.592 18.5179 51.9168C18.1281 51.7561 18.067 51.7852 18.067 52.1975C18.0641 55.519 18.0624 58.8395 18.0619 62.1591C18.0619 62.4499 18.1637 62.5699 18.4641 62.5692C22.6097 62.5643 26.7554 62.5643 30.901 62.5692C31.221 62.5692 31.32 62.4449 31.3192 62.1373C31.3134 57.823 31.3115 53.5087 31.3134 49.1944C31.3032 49.0647 31.2833 48.9358 31.2538 48.8091V48.8112Z" fill="#222222"/>
<path d="M47.603 12.527C47.6104 12.2151 47.7364 11.9177 47.9555 11.6954C48.1746 11.4732 48.4701 11.3428 48.782 11.3309C49.3864 11.3214 49.9726 11.9017 49.9813 12.5168C49.9901 13.1487 49.4053 13.7369 48.7733 13.7318C48.1558 13.7275 47.6016 13.161 47.603 12.527Z" fill="#222222"/>
</g>
<defs>
<clipPath id="clip0">
<rect width="65" height="65" fill="white"/>
</clipPath>
</defs>
</svg>
